<svg xmlns="http://www.w3.org/2000/svg" aria-hidden="true" style="position:absolute;width:0;height:0;overflow:hidden">
  <defs>
    <symbol id="icon-login" viewBox="0 0 32 32">
      <path stroke-linejoin="round" stroke-linecap="round" stroke-miterlimit="4" stroke-width="1.5"
        d="M11.867 10.080c0.413-4.8 2.88-6.76 8.28-6.76h0.173c5.96 0 8.347 2.387 8.347 8.347v8.693c0 5.96-2.387 8.347-8.347 8.347h-0.173c-5.36 0-7.827-1.933-8.267-6.653">
      </path>
      <path stroke-linejoin="round" stroke-linecap="round" stroke-miterlimit="4" stroke-width="1.5"
        d="M2.667 16h17.173"></path>
      <path stroke-linejoin="round" stroke-linecap="round" stroke-miterlimit="4" stroke-width="1.5"
        d="M16.867 11.533l4.467 4.467-4.467 4.467"></path>
    </symbol>

    <symbol id="icon-close" viewBox="0 0 32 32">
      <path stroke-linecap="round" stroke-linejoin="round" stroke-width="2.667" d="M24 8 8 24M8 8l16 16" />
    </symbol>

    <symbol id="icon-logo" viewBox="0 0 24 32">
      <path
        d="M6.663 30.054c.489-2.543.905-5.22 1.494-7.897.29-1.401-.063-1.999-1.63-1.892s-3.313.053-4.979 0c-1.666-.054-1.965-.892-1.005-2.088C5.269 12.341 10.049 6.577 14.811.83c.534-.651 1.15-1.115 2.028-.625s.697 1.098.552 1.829c-.525 2.677-.96 5.354-1.539 7.978-.299 1.356.091 1.838 1.503 1.785a42.527 42.527 0 0 1 4.255 0c.806 0 1.865-.419 2.281.678s-.462 1.562-.905 2.213a611.485 611.485 0 0 1-5.504 6.684 2916.089 2916.089 0 0 0-8.102 9.709c-.525.633-1.114 1.142-2.01.821s-.706-1.08-.706-1.847z" />
    </symbol>

    <symbol id="icon-bell" viewBox="0 0 32 32">
      <path stroke-linecap="round" stroke-linejoin="round" stroke-width="3"
        d="M12.472 28c.94.83 2.175 1.333 3.528 1.333s2.588-.504 3.528-1.333M24 10.667a8 8 0 1 0-16 0c0 4.12-1.039 6.941-2.2 8.807-.979 1.574-1.469 2.361-1.451 2.58.02.243.071.336.267.481.177.131.974.131 2.569.131h17.63c1.595 0 2.392 0 2.569-.131.196-.145.247-.238.267-.481.018-.22-.472-1.006-1.451-2.58-1.161-1.866-2.2-4.687-2.2-8.807z" />
    </symbol>

    <symbol id="icon-arrow-circler" viewBox="0 0 32 32">
      <path stroke-linecap="round" stroke-linejoin="round" stroke-width="2.6"
        d="M4.45 9.333A13.328 13.328 0 0 1 16 2.666c7.364 0 13.333 5.97 13.333 13.333S23.363 29.332 16 29.332a13.329 13.329 0 0 1-11.55-6.667" />
      <path stroke-linecap="round" stroke-linejoin="round" stroke-width="2.6"
        d="M16 21.333 21.333 16 16 10.667M2.667 16h18.667" />
    </symbol>

    <symbol id="icon-filter" viewBox="0 0 33 32">
      <path stroke-linecap="round" stroke-linejoin="round" stroke-width="2.087"
        d="M25.971 2.783H7.42l7.42 8.774v6.066l3.71 1.855v-7.921l7.42-8.774z" />
    </symbol>

    <symbol id="icon-pencil" viewBox="0 0 32 32">
      <path stroke-linejoin="round" stroke-linecap="round" stroke-miterlimit="4" stroke-width="2.6"
        d="M3.333 28.667l7.399-2.846c0.473-0.182 0.71-0.273 0.931-0.392 0.197-0.106 0.384-0.227 0.56-0.364 0.198-0.154 0.378-0.333 0.736-0.692l15.040-15.040c1.473-1.473 1.473-3.861 0-5.333s-3.861-1.473-5.333 0l-15.040 15.040c-0.359 0.359-0.538 0.538-0.692 0.736-0.137 0.176-0.259 0.364-0.364 0.56-0.119 0.221-0.21 0.458-0.392 0.931l-2.846 7.399zM3.333 28.667l2.744-7.135c0.196-0.511 0.295-0.766 0.463-0.883 0.147-0.102 0.329-0.141 0.505-0.107 0.201 0.038 0.395 0.232 0.782 0.619l3.012 3.012c0.387 0.387 0.58 0.58 0.619 0.782 0.034 0.176-0.005 0.358-0.107 0.505-0.117 0.168-0.372 0.267-0.883 0.463l-7.135 2.744z">
      </path>
    </symbol>

    <symbol id="icon-plus" viewBox="0 0 32 32">
      <path d="M16 6.667v18.667"></path>
      <path d="M6.667 16h18.667"></path>
    </symbol>

    <symbol id="icon-trash" viewBox="0 0 32 32">
      <path stroke-linejoin="round" stroke-linecap="round" stroke-miterlimit="4" stroke-width="2.6" d="M12 4h8"></path>
      <path stroke-linejoin="round" stroke-linecap="round" stroke-miterlimit="4" stroke-width="2.6" d="M4 8h24"></path>
      <path stroke-linejoin="round" stroke-linecap="round" stroke-miterlimit="4" stroke-width="2.6"
        d="M6.667 8l0.801 12.018c0.149 2.231 0.223 3.347 0.588 4.243 0.662 1.627 2.004 2.883 3.672 3.435 0.919 0.304 2.037 0.304 4.273 0.304v0c2.236 0 3.354 0 4.273-0.304 1.668-0.552 3.010-1.808 3.672-3.435 0.365-0.896 0.439-2.012 0.588-4.243l0.801-12.018">
      </path>
    </symbol>

    <symbol id="icon-colors" viewBox="0 0 32 32">
      <path stroke-linecap="round" stroke-linejoin="round" stroke-width="2.667"
        d="M16 27.296a8 8 0 1 0 7.44-13.683m-14.88.001a8 8 0 1 0 9.546 4.773M24 10.667a8 8 0 1 1-16 0 8 8 0 0 1 16 0z" />
    </symbol>

    <symbol id="icon-container" viewBox="0 0 32 32">
      <path stroke-linecap="round" stroke-linejoin="round" stroke-width="2.667"
        d="M27.333 9.704 16 16m0 0L4.667 9.704M16 16v12.667m12-7.256V10.588c0-.457 0-.685-.067-.889a1.343 1.343 0 0 0-.285-.485c-.145-.158-.345-.269-.744-.491l-9.867-5.481c-.378-.21-.567-.315-.767-.356a1.349 1.349 0 0 0-.537 0c-.2.041-.389.146-.767.356L5.099 8.723c-.399.222-.599.333-.744.491a1.34 1.34 0 0 0-.286.485c-.067.204-.067.432-.067.889v10.823c0 .457 0 .685.067.889.06.18.157.346.286.485.145.158.345.269.744.491l9.867 5.482c.378.21.567.315.767.356.177.036.36.036.537 0 .2-.041.389-.146.767-.356l9.867-5.482c.399-.222.599-.333.744-.491.129-.14.226-.305.285-.485.067-.204.067-.432.067-.889z" />
    </symbol>

    <symbol id="icon-hexagon" viewBox="0 0 32 32">
      <path stroke-linecap="round" stroke-linejoin="round" stroke-width="2.667"
        d="M14.964 3.242c.378-.21.567-.315.767-.356.177-.036.36-.036.537 0 .2.041.389.146.767.356l9.867 5.482c.399.222.599.333.744.491.129.14.226.305.285.485.067.204.067.432.067.889v10.823c0 .457 0 .685-.067.889-.06.18-.157.346-.285.485-.145.158-.345.269-.744.491l-9.867 5.482c-.378.21-.567.315-.767.356-.177.036-.36.036-.537 0-.2-.041-.389-.146-.767-.356l-9.867-5.482c-.399-.222-.599-.333-.744-.491a1.34 1.34 0 0 1-.286-.485C4 22.097 4 21.869 4 21.412V10.589c0-.457 0-.685.067-.889.06-.18.157-.346.286-.485.145-.158.345-.269.744-.491l9.867-5.481z" />
    </symbol>

    <symbol id="icon-lightning" viewBox="0 0 32 32">
      <path stroke-linecap="round" stroke-linejoin="round" stroke-width="2.667"
        d="M18.999 2.667h-7.674c-.239 0-.359 0-.465.036a.672.672 0 0 0-.249.154c-.08.078-.133.185-.24.399l-5.6 11.2c-.256.511-.383.767-.353.974a.669.669 0 0 0 .277.449c.172.12.458.12 1.029.12h8.274l-4 13.333 16.258-16.86c.548-.569.823-.853.839-1.097a.665.665 0 0 0-.235-.553c-.186-.157-.581-.157-1.372-.157h-9.49l3-8z" />
    </symbol>

    <symbol id="icon-loading" viewBox="0 0 32 32">
      <path stroke-linecap="round" stroke-linejoin="round" stroke-width="2.667"
        d="M4.454 22.666a6.364 6.364 0 0 1 1.944-8.453l.003-.003a6.37 6.37 0 0 1 7.312.126l4.576 3.327a6.37 6.37 0 0 0 7.312.126l.003-.003a6.36 6.36 0 0 0 1.943-8.453m-4.878 18.213a6.365 6.365 0 0 1-8.453-1.944l-.003-.003a6.37 6.37 0 0 1 .126-7.312l3.327-4.576a6.37 6.37 0 0 0 .126-7.312l-.006-.003a6.363 6.363 0 0 0-8.453-1.942m16.094 2.118c5.207 5.207 5.207 13.648 0 18.855s-13.648 5.207-18.855 0c-5.207-5.207-5.207-13.648 0-18.855s13.648-5.207 18.855 0z" />
    </symbol>

    <symbol id="icon-puzzle" viewBox="0 0 32 32">
      <path stroke-linecap="round" stroke-linejoin="round" stroke-width="2.667"
        d="m16 2.667 4.8 4.8C24-.933 32.933 8 24.533 11.2l4.8 4.8-4.8 4.8c-3.2-8.4-12.133.533-3.733 3.733l-4.8 4.8-4.8-4.8C8 32.933-.933 24 7.467 20.8l-4.8-4.8 4.8-4.8c3.2 8.4 12.133-.533 3.733-3.733l4.8-4.8z" />
    </symbol>

    <symbol id="icon-star" viewBox="0 0 32 32">
      <path stroke-linecap="round" stroke-linejoin="round" stroke-width="2.667"
        d="m16 2.667 2.683 6.975c.376.978.564 1.466.856 1.878.259.364.577.683.942.942.411.292.9.48 1.878.856l6.975 2.683-6.975 2.683c-.978.376-1.466.564-1.878.856a3.993 3.993 0 0 0-.942.942c-.292.411-.48.9-.856 1.878L16 29.335l-2.683-6.975c-.376-.978-.564-1.466-.856-1.878a4.012 4.012 0 0 0-.942-.942c-.411-.292-.9-.48-1.878-.856l-6.975-2.683 6.975-2.683c.978-.376 1.466-.564 1.878-.856.364-.259.683-.578.942-.942.292-.411.48-.9.856-1.878L16 2.667z" />
    </symbol>

    <symbol id="icon-projects" viewBox="0 0 32 32">
      <path stroke-width="2.667"
        d="M4.396 6.978a3.465 3.465 0 0 1 2.582-2.582 7.408 7.408 0 0 1 3.377 0 3.465 3.465 0 0 1 2.582 2.582c.26 1.11.26 2.266 0 3.377a3.465 3.465 0 0 1-2.582 2.582c-1.11.26-2.266.26-3.377 0a3.465 3.465 0 0 1-2.582-2.582 7.408 7.408 0 0 1 0-3.377zM4.396 21.645a3.465 3.465 0 0 1 2.582-2.582 7.38 7.38 0 0 1 3.377 0 3.464 3.464 0 0 1 2.582 2.582 7.408 7.408 0 0 1 0 3.377 3.465 3.465 0 0 1-2.582 2.582 7.38 7.38 0 0 1-3.377 0 3.464 3.464 0 0 1-2.582-2.582 7.408 7.408 0 0 1 0-3.377zM19.063 6.978a3.464 3.464 0 0 1 2.582-2.582 7.408 7.408 0 0 1 3.377 0 3.465 3.465 0 0 1 2.582 2.582 7.38 7.38 0 0 1 0 3.377 3.464 3.464 0 0 1-2.582 2.582 7.408 7.408 0 0 1-3.377 0 3.465 3.465 0 0 1-2.582-2.582 7.38 7.38 0 0 1 0-3.377zM19.063 21.645a3.464 3.464 0 0 1 2.582-2.582 7.38 7.38 0 0 1 3.377 0 3.464 3.464 0 0 1 2.582 2.582 7.38 7.38 0 0 1 0 3.377 3.464 3.464 0 0 1-2.582 2.582 7.38 7.38 0 0 1-3.377 0 3.464 3.464 0 0 1-2.582-2.582 7.38 7.38 0 0 1 0-3.377z" />
    </symbol>

    <symbol id="icon-help" viewBox="0 0 32 32">
      <path stroke-linecap="round" stroke-linejoin="round" stroke-width="2.88"
        d="M16 29.333c7.364 0 13.333-5.97 13.333-13.333S23.364 2.667 16 2.667 2.667 8.637 2.667 16 8.637 29.333 16 29.333z" />
      <path stroke-linecap="round" stroke-linejoin="round" stroke-width="2.88"
        d="M12.12 12a4.003 4.003 0 0 1 6.834-1.249c.608.722.941 1.637.94 2.582 0 2.667-4 4-4 4M16 22.667h.02" />
    </symbol>

    <symbol id="icon-arrow-down" viewBox="0 0 30 32">
      <path stroke-linecap="round" stroke-linejoin="round" stroke-width="2.824"
        d="m7.529 12.235 7.529 7.529 7.529-7.529" />
    </symbol>

    <symbol id="icon-burger" viewBox="0 0 32 32">
      <path stroke-linecap="round" stroke-linejoin="round" stroke-width="2.5" d="M4 16h24M4 8h24M4 24h24" />
    </symbol>

    <symbol id="icon-eye" viewBox="0 0 32 32">
      <path stroke-linecap="round" stroke-linejoin="round" stroke-width="2.311"
        d="M1.333 16S6.666 5.333 16 5.333 30.667 16 30.667 16 25.334 26.667 16 26.667 1.333 16 1.333 16z" />
      <path stroke-linecap="round" stroke-linejoin="round" stroke-width="2.311"
        d="M16 20a4 4 0 1 0 0-8 4 4 0 0 0 0 8z" />
    </symbol>
    <symbol id="icon-arrow-circle-broken-right" viewBox="0 0 32 32">
      <path stroke-linejoin="round" stroke-linecap="round" stroke-miterlimit="4" stroke-width="2.6"
        d="M4.451 9.333c2.305-3.985 6.614-6.667 11.55-6.667 7.364 0 13.333 5.97 13.333 13.333s-5.969 13.333-13.333 13.333c-4.935 0-9.244-2.681-11.55-6.667">
      </path>
      <path stroke-linejoin="round" stroke-linecap="round" stroke-miterlimit="4" stroke-width="2.6"
        d="M16 21.333l5.333-5.333-5.333-5.333"></path>
      <path stroke-linejoin="round" stroke-linecap="round" stroke-miterlimit="4" stroke-width="2.6"
        d="M2.667 16h18.667"></path>
    </symbol>

  </defs>
</svg>