<svg xmlns="http://www.w3.org/2000/svg" aria-hidden="true" style="position:absolute;width:0;height:0;overflow:hidden">
  <defs>
    <symbol id="icon-logo" viewBox="0 0 24 32">
      <path d="M6.663 30.054c.489-2.543.905-5.22 1.494-7.897.29-1.401-.063-1.999-1.63-1.892s-3.313.053-4.979 0c-1.666-.054-1.965-.892-1.005-2.088C5.269 12.341 10.049 6.577 14.811.83c.534-.651 1.15-1.115 2.028-.625s.697 1.098.552 1.829c-.525 2.677-.96 5.354-1.539 7.978-.299 1.356.091 1.838 1.503 1.785a42.527 42.527 0 0 1 4.255 0c.806 0 1.865-.419 2.281.678s-.462 1.562-.905 2.213a611.485 611.485 0 0 1-5.504 6.684 2916.089 2916.089 0 0 0-8.102 9.709c-.525.633-1.114 1.142-2.01.821s-.706-1.08-.706-1.847z"/>
    </symbol>
  </defs>
</svg>
